HIERARCHY
ROOT Joint1
{
	OFFSET 0.000000 0.000000 0.000000
	CHANNELS 6 Xposition Yposition Zposition Xrotation Yrotation Zrotation
	JOINT Joint2
	{
		OFFSET -0.000000 0.000000 1.456275
		CHANNELS 6 Xposition Yposition Zposition Xrotation Yrotation Zrotation
		JOINT Joint3
		{
			OFFSET -0.000000 0.000002 1.471446
			CHANNELS 6 Xposition Yposition Zposition Xrotation Yrotation Zrotation
			JOINT Joint4
			{
				OFFSET 0.625745 0.000000 0.917755
				CHANNELS 6 Xposition Yposition Zposition Xrotation Yrotation Zrotation
				JOINT Joint5
				{
					OFFSET -0.629534 0.000001 0.940221
					CHANNELS 6 Xposition Yposition Zposition Xrotation Yrotation Zrotation
					JOINT Joint6
					{
						OFFSET -0.000001 0.113772 1.960660
						CHANNELS 6 Xposition Yposition Zposition Xrotation Yrotation Zrotation
						JOINT Joint7
						{
							OFFSET -0.669733 -0.113771 0.388340
							CHANNELS 6 Xposition Yposition Zposition Xrotation Yrotation Zrotation
							End Site
							{
								OFFSET 0.005509 0.005509 0.438980
							}
						}
					}
				}
			}
		}
	}
}
MOTION
Frames: 19
Frame Time: 0.041667
0.000000 0.000000 0.000000 -0.000000 1.019410 -16.725270 -0.000000 0.000000 1.456275 -0.000001 -46.241709 -0.000000 -0.000000 0.000002 1.471446 -0.000006 -1.133454 98.027333 0.625745 0.000000 0.917755 0.000002 160.730648 -0.000000 -0.629533 0.000001 0.940221 0.000001 1.709736 102.529971 -0.000001 0.113772 1.960660 -88.303875 120.285369 0.000009 -0.669733 -0.113771 0.388340 -1.184190 1.652107 -73.038232 
0.000000 0.000000 0.000000 -0.000000 1.019410 -16.706400 -0.000000 0.000000 1.456275 0.000002 -46.240278 -0.000001 -0.000000 0.000002 1.471446 -0.000006 -1.133458 97.916649 0.625745 0.000001 0.917754 0.000001 160.701633 -0.000001 -0.629534 0.000001 0.940221 -0.000003 1.709737 102.414226 -0.000001 0.113772 1.960660 -88.303875 120.251136 0.000004 -0.669733 -0.113771 0.388340 -1.180503 1.650154 -72.803574 
0.000000 0.000000 0.000000 -0.000000 1.019410 -16.674824 -0.000000 -0.000000 1.456275 -0.000001 -46.237888 0.000002 -0.000000 0.000002 1.471446 -0.000006 -1.133454 97.731360 0.625745 0.000001 0.917755 0.000002 160.653071 -0.000001 -0.629534 0.000001 0.940221 -0.000001 1.709737 102.220461 -0.000001 0.113772 1.960660 -88.303882 120.193899 0.000010 -0.669733 -0.113771 0.388340 -1.174329 1.646923 -72.410770 
0.000000 0.000000 0.000000 -0.000000 1.019410 -16.630418 -0.000000 0.000000 1.456275 -0.000000 -46.234531 0.000001 -0.000000 0.000002 1.471446 -0.000005 -1.133456 97.470836 0.625745 0.000000 0.917755 0.000003 160.584782 -0.000001 -0.629534 0.000001 0.940221 -0.000003 1.709736 101.948025 -0.000001 0.113772 1.960661 -88.303882 120.113357 0.000009 -0.669734 -0.113771 0.388341 -1.165595 1.642450 -71.858460 
0.000000 0.000000 0.000000 -0.000000 1.019410 -16.573078 -0.000000 0.000000 1.456275 -0.000001 -46.230190 0.000001 -0.000000 0.000002 1.471446 -0.000005 -1.133456 97.134415 0.625744 0.000000 0.917755 -0.000003 160.496605 -0.000000 -0.629534 0.000001 0.940221 -0.000002 1.709736 101.596223 -0.000001 0.113772 1.960661 -88.303875 120.009388 0.000002 -0.669733 -0.113771 0.388339 -1.154259 1.636795 -71.145245 
0.000000 0.000000 0.000000 -0.000000 1.019410 -16.502693 -0.000000 0.000000 1.456275 0.000001 -46.224869 0.000001 -0.000000 0.000002 1.471446 -0.000007 -1.133456 96.721441 0.625745 0.000000 0.917755 0.000002 160.388360 -0.000000 -0.629534 0.000001 0.940221 -0.000001 1.709736 101.164357 -0.000001 0.113772 1.960661 -88.303875 119.881732 -0.000002 -0.669733 -0.113771 0.388340 -1.140244 1.630057 -70.269738 
0.000000 0.000000 0.000000 -0.000000 1.019410 -16.419145 -0.000000 -0.000000 1.456275 0.000000 -46.218541 0.000001 -0.000000 0.000002 1.471446 -0.000006 -1.133453 96.231266 0.625745 0.000000 0.917755 -0.000000 160.259884 -0.000000 -0.629534 0.000001 0.940221 -0.000004 1.709735 100.651764 -0.000001 0.113772 1.960661 -88.303875 119.730266 0.000010 -0.669733 -0.113771 0.388339 -1.123477 1.622332 -69.230572 
0.000000 0.000000 0.000000 -0.000000 1.019410 -16.322332 -0.000000 -0.000000 1.456275 0.000001 -46.211212 0.000001 -0.000000 0.000002 1.471446 -0.000005 -1.133452 95.663240 0.625744 0.000000 0.917755 0.000006 160.111000 -0.000000 -0.629534 0.000001 0.940221 -0.000000 1.709736 100.057770 -0.000001 0.113772 1.960661 -88.303875 119.554702 0.000002 -0.669733 -0.113771 0.388340 -1.103887 1.613762 -68.026362 
0.000000 0.000000 0.000000 -0.000000 1.019410 -16.212135 -0.000000 0.000000 1.456275 -0.000001 -46.202873 -0.000001 -0.000000 0.000002 1.471446 -0.000007 -1.133454 95.016708 0.625744 0.000000 0.917755 0.000002 159.941543 -0.000001 -0.629534 0.000001 0.940221 -0.000001 1.709736 99.381663 -0.000001 0.113772 1.960660 -88.303875 119.354878 0.000008 -0.669733 -0.113771 0.388340 -1.081370 1.604510 -66.655720 
0.000000 0.000000 0.000000 -0.000000 1.019410 -16.088449 -0.000000 -0.000000 1.456275 0.000001 -46.193519 0.000000 -0.000001 0.000002 1.471446 -0.000006 -1.133457 94.291014 0.625744 0.000000 0.917755 0.000004 159.751322 -0.000001 -0.629533 0.000001 0.940221 -0.000003 1.709736 98.622775 -0.000001 0.113772 1.960661 -88.303882 119.130589 0.000006 -0.669733 -0.113771 0.388339 -1.055839 1.594774 -65.117261 
0.000000 0.000000 0.000000 -0.000000 1.019410 -15.950983 -0.000000 -0.000000 1.456275 -0.000000 -46.183116 0.000002 -0.000000 0.000002 1.471446 -0.000005 -1.133455 93.484478 0.625745 0.000000 0.917755 0.000005 159.539914 -0.000001 -0.629534 0.000001 0.940221 -0.000001 1.709736 97.779356 -0.000001 0.113772 1.960660 -88.303875 118.881300 0.000009 -0.669733 -0.113771 0.388339 -1.027166 1.584756 -63.407433 
0.000000 0.000000 0.000000 -0.000000 1.019410 -15.798752 -0.000000 -0.000000 1.456275 0.000001 -46.171604 0.000002 -0.000000 0.000002 1.471446 -0.000005 -1.133457 92.591328 0.625745 0.000000 0.917755 0.000001 159.305830 0.000000 -0.629534 0.000000 0.940221 -0.000004 1.709736 96.845368 -0.000001 0.113772 1.960661 -88.303882 118.605279 0.000001 -0.669733 -0.113771 0.388340 -0.995087 1.574670 -61.513968 
0.000000 0.000000 0.000000 -0.000000 1.019410 -15.630599 -0.000000 0.000000 1.456275 0.000000 -46.158873 0.000001 -0.000000 0.000002 1.471446 -0.000005 -1.133456 91.604749 0.625745 0.000000 0.917755 -0.000000 159.047225 -0.000001 -0.629534 0.000001 0.940221 0.000002 1.709735 95.813668 -0.000001 0.113772 1.960660 -88.303875 118.300352 0.000012 -0.669733 -0.113771 0.388341 -0.959283 1.564768 -59.422455 
0.000000 0.000000 0.000000 -0.000000 1.019410 -15.445363 -0.000000 0.000000 1.456275 -0.000001 -46.144857 0.000002 -0.000001 0.000002 1.471445 -0.000005 -1.133456 90.517936 0.625745 0.000001 0.917755 0.000002 158.762365 -0.000001 -0.629534 0.000001 0.940220 0.000002 1.709735 94.677152 -0.000001 0.113772 1.960660 -88.303875 117.964443 -0.000001 -0.669733 -0.113771 0.388340 -0.919458 1.555375 -57.118437 
0.000000 0.000000 0.000000 -0.000000 1.019410 -15.242872 -0.000000 0.000000 1.456275 0.000001 -46.129540 -0.000000 -0.000000 0.000002 1.471446 -0.000005 -1.133453 89.329893 0.625745 0.000000 0.917755 0.000002 158.450977 -0.000001 -0.629534 0.000001 0.940221 -0.000005 1.709736 93.434768 -0.000001 0.113772 1.960661 -88.303868 117.597252 0.000008 -0.669733 -0.113771 0.388340 -0.875522 1.546952 -54.599812 
0.000000 0.000000 0.000000 -0.000000 1.019410 -15.026915 -0.000000 0.000000 1.456275 0.000000 -46.113199 0.000001 -0.000000 0.000002 1.471446 -0.000003 -1.133454 88.062845 0.625745 0.000000 0.917755 0.000003 158.118866 -0.000001 -0.629534 0.000001 0.940221 -0.000001 1.709736 92.109780 -0.000001 0.113772 1.960660 -88.303875 117.205650 0.000011 -0.669733 -0.113771 0.388340 -0.828310 1.540104 -51.913727 
0.000000 0.000000 0.000000 -0.000000 1.019410 -14.802278 -0.000000 -0.000000 1.456275 -0.000001 -46.096199 0.000000 -0.000000 0.000002 1.471446 -0.000005 -1.133455 86.744864 0.625745 0.000001 0.917755 -0.000000 157.773408 -0.000001 -0.629534 0.000001 0.940221 0.000000 1.709735 90.731523 -0.000001 0.113772 1.960660 -88.303882 116.798298 -0.000002 -0.669733 -0.113771 0.388341 -0.778914 1.535337 -49.119661 
0.000000 0.000000 0.000000 -0.000000 1.019410 -14.575041 -0.000000 0.000000 1.456275 0.000002 -46.079007 0.000002 -0.000000 0.000002 1.471446 -0.000006 -1.133456 85.411625 0.625745 0.000001 0.917755 -0.000001 157.423949 -0.000001 -0.629534 0.000001 0.940220 -0.000005 1.709735 89.337310 -0.000001 0.113772 1.960661 -88.303875 116.386232 -0.000003 -0.669733 -0.113771 0.388340 -0.728775 1.532963 -46.293243 
0.000000 0.000000 0.000000 -0.000000 1.019410 -14.356486 -0.000000 0.000000 1.456275 0.000000 -46.062471 -0.000001 -0.000000 0.000002 1.471446 -0.000004 -1.133458 84.129318 0.625745 0.000000 0.917755 0.000005 157.087849 -0.000002 -0.629534 0.000001 0.940222 -0.000005 1.709738 87.996367 -0.000001 0.113772 1.960661 -88.303882 115.989917 0.000006 -0.669733 -0.113771 0.388341 -0.680490 1.533020 -43.574821 
